PathFileType	4	(X/Y/Z)	Patient4_TMGait_0pt4_03_right_07.trc.trc
DataRate	CameraRate	NumFrames	NumMarkers	Units	OrigDataRate	OrigDataStartFrame	OrigNumFrames
76.923076923077	76.923076923077	4	33	mm	76.923076923077	18	       141
Frame#	Time	Sacral			L.Shoulder			Chest			R.Shoulder			Neck			R.ASIS			L.ASIS			R.Thigh.Superior			R.Thigh.Lateral			R.Thigh.Inferior			R.Patella			L.Thigh.Superior			L.Thigh.Lateral			L.Thigh.Inferior			L.Patella			L.Shank.Superior			L.Shank.Lateral			L.Shank.Inferior			R.Shank.Superior			R.Shank.Lateral			R.Shank.Inferior			R.Heel			R.Midfoot.Superior			R.Midfoot.Lateral			R.Toe			L.Heel			L.Midfoot.Lateral			L.Midfoot.Superior			L.Toe			L.Elbow			L.Wrist			R.Elbow			R.Wrist			
		X1	Y1	Z1	X2	Y2	Z2	X3	Y3	Z3	X4	Y4	Z4	X5	Y5	Z5	X6	Y6	Z6	X7	Y7	Z7	X8	Y8	Z8	X9	Y9	Z9	X10	Y10	Z10	X11	Y11	Z11	X12	Y12	Z12	X13	Y13	Z13	X14	Y14	Z14	X15	Y15	Z15	X16	Y16	Z16	X17	Y17	Z17	X18	Y18	Z18	X19	Y19	Z19	X20	Y20	Z20	X21	Y21	Z21	X22	Y22	Z22	X23	Y23	Z23	X24	Y24	Z24	X25	Y25	Z25	X26	Y26	Z26	X27	Y27	Z27	X28	Y28	Z28	X29	Y29	Z29	X30	Y30	Z30	X31	Y31	Z31	X32	Y32	Z32	X33	Y33	Z33	

18	8.331000000000	797.359087344615	1004.765017627285	421.779518974813	993.437291799505	1430.888578337068	242.670813137262	1079.681072186820	1367.274316254355	415.471318869832	978.416846068310	1444.720576505130	578.118878697757	965.964712631810	1497.650477456999	396.037125520496	1016.380223271139	947.996079998988	561.703972431964	1028.952207919064	967.141146417061	284.498969091422	1084.468940364569	764.580472350029	544.297802029862	1033.197800380238	651.123405185494	624.079397374622	1121.706845151569	604.436411614257	547.417655328015	1151.523452198256	525.410837032676	569.227635299365	1047.387495501756	742.853700526602	319.289517261943	948.118346746389	637.052920549585	247.669858593243	1013.257448969670	551.204410324505	316.923807875040	1003.000576618363	484.889360884437	325.650621599119	976.035111147135	414.701957529772	315.622348693132	884.031419169830	302.923216569781	260.570974116441	928.685976653527	191.535725061918	336.179826889895	1137.026296470803	440.949727191702	584.810037951677	1085.347433805257	330.584882415186	654.949057984178	1157.486308640275	243.018901484310	609.156290333664	1070.877141647530	53.635440971098	589.948611059711	1233.340460066718	129.463553296803	628.117420116204	1155.419311170623	53.881953125100	662.953756988504	1357.938980714769	94.419639232853	654.409832575143	797.175925573138	38.628582011240	381.143574146859	869.358808966619	34.334283270318	298.828689097212	952.689356346473	95.838734275472	325.860302785956	1081.070484393309	45.492138545249	294.621445945763	1022.267472235495	1087.120099511908	109.345917858613	1260.282487627799	980.900821203668	121.476248164320	860.003067481769	1122.378419715070	699.311108922898	870.323872108623	862.669861909009	727.656465589069	
19	8.344000000000	798.891614108504	1004.036098224235	422.913951334503	993.949506311404	1430.546454909391	244.340907278513	1079.986628529792	1367.259559640380	417.338449080280	978.082196283358	1444.385949083461	579.740955276924	965.760218401406	1497.187113036059	397.647017883192	1017.665917534934	947.199292850011	563.241631953330	1030.974800130747	966.823182974931	285.938396131710	1085.033787650022	762.745911807830	546.094239172860	1031.568279828863	648.758428746297	624.233412686129	1120.618747832657	602.172870652235	548.378715951152	1149.196499905978	523.104374411111	569.472910634827	1047.282689431569	741.837490739340	320.533294855437	946.793139905857	636.922452383921	248.653285666539	1010.945403352164	550.417900014993	317.761271826704	1000.115790364390	484.189672805922	326.318319559770	972.723694019911	414.326536721972	316.180775266926	879.945084843229	303.188128976976	261.029800993351	923.967720242398	191.300655225772	336.318443854599	1134.192492753583	438.181063945891	584.369425030842	1081.119850604270	327.892890259950	653.280356743706	1152.836925689632	240.165954975035	607.507133263722	1064.905194229550	52.008831490561	586.866587285163	1227.579561969296	126.067436984410	625.881904592332	1148.971382493366	51.380775360064	660.252968461817	1351.641916650353	90.087266428758	652.609195600170	791.937946896050	38.667968908276	381.133625687530	864.119182865519	34.340582865766	298.844545676805	947.528490557292	95.741401253386	325.887800896191	1075.876296206450	45.208655311146	294.641520193758	1024.699260513530	1086.646000457549	111.970863432559	1264.922694883841	986.061908093561	123.699363087230	857.939963038571	1122.912201023416	700.515430447409	869.345741927702	863.122143647260	728.711973759642	
20	8.357000000000	800.578301957995	1003.178946496623	424.356529717071	994.318893848834	1430.131968584412	246.158118998527	1080.250679102952	1367.256067774141	419.326239999469	977.710686492605	1443.988458013241	581.522945737461	965.436929632241	1496.638410691874	399.413657030518	1019.235437912520	946.346159016352	564.937057707203	1033.027559159131	966.405638007640	287.565986759467	1086.231015803165	761.025371587763	547.926445582490	1030.556740735968	646.357113825759	624.149550497677	1120.234678266376	600.068139943598	549.165910772720	1147.468286440109	520.587905458532	569.462758866122	1047.314627650906	740.776080951145	321.786805433797	945.512528380415	636.771308683477	249.753966098069	1008.784956024909	549.598002397116	318.602686103506	997.402367736771	483.434431114272	327.002974961042	969.555622391861	413.924548923379	316.758417792174	875.916140258683	303.481193644970	261.557202898578	919.287552071106	191.036162371625	336.481347620410	1131.371102547284	434.986886761321	583.582369104934	1076.099708013263	325.157331108682	651.204775854725	1146.669968215391	236.767572667652	605.387035515637	1056.005782498265	50.582721858768	583.383860074539	1219.319062276107	121.912034683591	623.125204263418	1139.589878224145	48.723747603056	657.179342502647	1342.657628238707	84.275885276320	650.333673938972	786.702863844677	38.696710641212	381.123255852129	858.882361400086	34.346530085062	298.862516345502	942.367725046046	95.651291613989	325.911128480022	1070.687357468598	44.919712615452	294.662394964232	1026.951798455639	1086.110936250971	114.715678323202	1269.102936838264	990.746614673611	125.970625695946	856.527749305297	1123.104549341576	701.929613742028	869.650252172134	863.241951112526	729.835995178823	
21	8.370000000000	802.402247112449	1002.208686183726	426.092097559095	994.583821053303	1429.635929745399	248.128730170444	1080.500039387956	1367.244944445255	421.445207811212	977.331338693527	1443.520452571034	583.472723392993	965.035243197603	1496.007482874806	401.340079947464	1021.071419792902	945.439383647421	566.780107546111	1035.090218679791	965.889684887545	289.379219629767	1087.926542729840	759.333212706983	549.778121288378	1030.035229102214	643.940547468015	623.876420124714	1120.382523600349	598.076214043771	549.779144252566	1146.195892013860	517.874621826045	569.173741289504	1047.509289453670	739.679109757321	323.004842781965	944.299258389973	636.599255692180	250.968116250631	1006.818350611891	548.746990155955	319.435729929148	994.911297199428	482.615862837011	327.700828281547	966.570934545894	413.484773332506	317.358151713847	871.974759484894	303.803669942917	262.154915788764	914.668529257854	190.743130239049	336.661482665959	1128.582595831028	431.471880389404	582.519654224695	1070.593178374259	322.394125420943	648.901724053591	1139.452891645934	232.965540329844	602.936815687757	1045.051122004199	49.243013135064	579.792609622629	1209.298131823032	117.321562554749	619.985279088517	1128.209408592277	46.046884296865	653.975472134449	1331.856590440699	77.613681707713	647.669255207875	781.474029205479	38.723229753796	381.108483343313	853.653297910294	34.357117314801	298.882522499589	937.214489922966	95.569933503026	325.929640649621	1065.508288726526	44.612208742213	294.682111474663	1029.010748609362	1085.505942558849	117.551033752233	1272.826557422538	994.905288201906	128.280979781304	855.776003108652	1122.942992645221	703.577182286514	871.227333149049	863.037047726781	731.055000337712	
